<?xml version="1.0" encoding="UTF-8" standalone="no"?>
<!DOCTYPE svg PUBLIC "-//W3C//DTD SVG 1.1//EN"
 "http://www.w3.org/Graphics/SVG/1.1/DTD/svg11.dtd">
<!-- Generated by graphviz version 2.38.0 (20140413.2041)
 -->
<!-- Title: G Pages: 1 -->
<svg width="4170pt" height="980pt"
 viewBox="0.00 0.00 4170.39 980.00" xmlns="http://www.w3.org/2000/svg" xmlns:xlink="http://www.w3.org/1999/xlink">
<g id="graph0" class="graph" transform="scale(1 1) rotate(0) translate(4 976)">
<title>G</title>
<polygon fill="white" stroke="none" points="-4,4 -4,-976 4166.39,-976 4166.39,4 -4,4"/>
<!-- 0 -->
<g id="node1" class="node"><title>0</title>
<ellipse fill="none" stroke="black" cx="1861" cy="-954" rx="185.467" ry="18"/>
<text text-anchor="middle" x="1861" y="-950.3" font-family="Times,serif" font-size="14.00">&quot;/home/sguelton/sources/binmap/_build/binmap&quot;</text>
</g>
<!-- 1 -->
<g id="node2" class="node"><title>1</title>
<ellipse fill="none" stroke="black" cx="2840" cy="-378" rx="128.877" ry="18"/>
<text text-anchor="middle" x="2840" y="-374.3" font-family="Times,serif" font-size="14.00">&quot;/lib/x86_64&#45;linux&#45;gnu/libz.so.1&quot;</text>
</g>
<!-- 0&#45;&gt;1 -->
<g id="edge101" class="edge"><title>0&#45;&gt;1</title>
<path fill="none" stroke="black" d="M2045.52,-952.368C2307.24,-950.025 2772.62,-940.125 2936,-900 3023.44,-878.524 3118,-901.043 3118,-811 3118,-811 3118,-811 3118,-593 3118,-511.453 3093.85,-482.723 3030,-432 3005.79,-412.767 2975.02,-400.508 2945.33,-392.696"/>
<polygon fill="black" stroke="black" points="2945.86,-389.222 2935.32,-390.213 2944.18,-396.016 2945.86,-389.222"/>
</g>
<!-- 3 -->
<g id="node4" class="node"><title>3</title>
<ellipse fill="none" stroke="black" cx="2149" cy="-234" rx="71.4873" ry="18"/>
<text text-anchor="middle" x="2149" y="-230.3" font-family="Times,serif" font-size="14.00">&quot;/lib32/libc.so.6&quot;</text>
</g>
<!-- 0&#45;&gt;3 -->
<g id="edge102" class="edge"><title>0&#45;&gt;3</title>
<path fill="none" stroke="black" d="M2042.46,-950.37C2347.65,-945.114 2939.37,-931.043 3030,-900 3094.86,-877.784 3156,-879.561 3156,-811 3156,-811 3156,-811 3156,-593 3156,-552.553 3162.95,-542.61 3175,-504 3190.49,-454.362 3209.8,-446.99 3220,-396 3223.14,-380.311 3229.47,-372.899 3220,-360 3156.88,-273.986 3095.89,-307.493 2991,-288 2846.49,-261.144 2411.02,-243.821 2229.65,-237.591"/>
<polygon fill="black" stroke="black" points="2229.75,-234.093 2219.64,-237.25 2229.52,-241.088 2229.75,-234.093"/>
</g>
<!-- 7 -->
<g id="node8" class="node"><title>7</title>
<ellipse fill="none" stroke="black" cx="1067" cy="-378" rx="75.2868" ry="18"/>
<text text-anchor="middle" x="1067" y="-374.3" font-family="Times,serif" font-size="14.00">&quot;/lib32/libm.so.6&quot;</text>
</g>
<!-- 0&#45;&gt;7 -->
<g id="edge103" class="edge"><title>0&#45;&gt;7</title>
<path fill="none" stroke="black" d="M1685.78,-948.102C1236.04,-934.375 76,-891.196 76,-811 76,-811 76,-811 76,-521 76,-453.523 135.448,-454.678 199,-432 326.475,-386.511 671.914,-404.415 807,-396 866.785,-392.276 934.289,-387.855 985.528,-384.456"/>
<polygon fill="black" stroke="black" points="985.806,-387.945 995.552,-383.79 985.342,-380.961 985.806,-387.945"/>
</g>
<!-- 9 -->
<g id="node10" class="node"><title>9</title>
<ellipse fill="none" stroke="black" cx="704" cy="-378" rx="94.4839" ry="18"/>
<text text-anchor="middle" x="704" y="-374.3" font-family="Times,serif" font-size="14.00">&quot;/lib32/libpthread.so.0&quot;</text>
</g>
<!-- 0&#45;&gt;9 -->
<g id="edge104" class="edge"><title>0&#45;&gt;9</title>
<path fill="none" stroke="black" d="M1675.97,-952.761C1320.57,-951.308 554.584,-943.091 294,-900 159.307,-877.727 0,-947.523 0,-811 0,-811 0,-811 0,-521 0,-478.496 0.846298,-457.301 35,-432 79.34,-399.153 424.427,-385.896 600.856,-381.224"/>
<polygon fill="black" stroke="black" points="601.031,-384.72 610.936,-380.961 600.849,-377.723 601.031,-384.72"/>
</g>
<!-- 11 -->
<g id="node12" class="node"><title>11</title>
<ellipse fill="none" stroke="black" cx="4048" cy="-810" rx="114.28" ry="18"/>
<text text-anchor="middle" x="4048" y="-806.3" font-family="Times,serif" font-size="14.00">&quot;/lib64/ld&#45;linux&#45;x86&#45;64.so.2&quot;</text>
</g>
<!-- 0&#45;&gt;11 -->
<g id="edge105" class="edge"><title>0&#45;&gt;11</title>
<path fill="none" stroke="black" d="M2046.05,-952.802C2510.37,-951.64 3700.12,-944.319 3874,-900 3926.82,-886.538 3981.87,-854.925 4015.55,-833.242"/>
<polygon fill="black" stroke="black" points="4017.59,-836.088 4024.05,-827.687 4013.76,-830.228 4017.59,-836.088"/>
</g>
<!-- 13 -->
<g id="node14" class="node"><title>13</title>
<ellipse fill="none" stroke="black" cx="517" cy="-666" rx="215.562" ry="18"/>
<text text-anchor="middle" x="517" y="-662.3" font-family="Times,serif" font-size="14.00">&quot;/usr/lib/x86_64&#45;linux&#45;gnu/libboost_filesystem.so.1.58.0&quot;</text>
</g>
<!-- 0&#45;&gt;13 -->
<g id="edge106" class="edge"><title>0&#45;&gt;13</title>
<path fill="none" stroke="black" d="M1683.39,-948.801C1479.81,-942.704 1159.18,-928.819 1042,-900 848.798,-852.483 637.85,-737.502 554.175,-689.081"/>
<polygon fill="black" stroke="black" points="555.712,-685.926 545.308,-683.923 552.192,-691.977 555.712,-685.926"/>
</g>
<!-- 16 -->
<g id="node17" class="node"><title>16</title>
<ellipse fill="none" stroke="black" cx="498" cy="-594" rx="204.164" ry="18"/>
<text text-anchor="middle" x="498" y="-590.3" font-family="Times,serif" font-size="14.00">&quot;/usr/lib/x86_64&#45;linux&#45;gnu/libboost_system.so.1.58.0&quot;</text>
</g>
<!-- 0&#45;&gt;16 -->
<g id="edge111" class="edge"><title>0&#45;&gt;16</title>
<path fill="none" stroke="black" d="M1719.86,-942.306C1488.99,-922.895 1056,-877.611 1056,-811 1056,-811 1056,-811 1056,-737 1056,-691.012 767.667,-637.764 605.53,-611.458"/>
<polygon fill="black" stroke="black" points="605.945,-607.979 595.515,-609.841 604.83,-614.89 605.945,-607.979"/>
</g>
<!-- 17 -->
<g id="node18" class="node"><title>17</title>
<ellipse fill="none" stroke="black" cx="1826" cy="-378" rx="100.983" ry="18"/>
<text text-anchor="middle" x="1826" y="-374.3" font-family="Times,serif" font-size="14.00">&quot;/usr/lib32/libgcc_s.so.1&quot;</text>
</g>
<!-- 0&#45;&gt;17 -->
<g id="edge116" class="edge"><title>0&#45;&gt;17</title>
<path fill="none" stroke="black" d="M1899.72,-936.298C2036.72,-876.117 2485.95,-669.041 2403,-576 2356.41,-523.741 2156.21,-562.759 2090,-540 2065.33,-531.521 1925.95,-443.116 1860.26,-401.034"/>
<polygon fill="black" stroke="black" points="1861.8,-397.868 1851.5,-395.416 1858.03,-403.76 1861.8,-397.868"/>
</g>
<!-- 18 -->
<g id="node19" class="node"><title>18</title>
<ellipse fill="none" stroke="black" cx="1711" cy="-522" rx="105.881" ry="18"/>
<text text-anchor="middle" x="1711" y="-518.3" font-family="Times,serif" font-size="14.00">&quot;/usr/lib32/libstdc++.so.6&quot;</text>
</g>
<!-- 0&#45;&gt;18 -->
<g id="edge117" class="edge"><title>0&#45;&gt;18</title>
<path fill="none" stroke="black" d="M1852.39,-935.762C1847.68,-925.599 1842.18,-912.349 1839,-900 1820.93,-829.846 1842.66,-636.62 1803,-576 1793.81,-561.949 1779.51,-551.187 1764.9,-543.152"/>
<polygon fill="black" stroke="black" points="1766.3,-539.939 1755.81,-538.497 1763.11,-546.17 1766.3,-539.939"/>
</g>
<!-- 20 -->
<g id="node21" class="node"><title>20</title>
<ellipse fill="none" stroke="black" cx="1536" cy="-594" rx="239.658" ry="18"/>
<text text-anchor="middle" x="1536" y="-590.3" font-family="Times,serif" font-size="14.00">&quot;/usr/lib/x86_64&#45;linux&#45;gnu/libboost_program_options.so.1.58.0&quot;</text>
</g>
<!-- 0&#45;&gt;20 -->
<g id="edge107" class="edge"><title>0&#45;&gt;20</title>
<path fill="none" stroke="black" d="M1807.74,-936.634C1788.05,-928.335 1766.91,-916.444 1752,-900 1723.66,-868.751 1719,-853.187 1719,-811 1719,-811 1719,-811 1719,-737 1719,-675.164 1652.98,-636.381 1600.24,-615.266"/>
<polygon fill="black" stroke="black" points="1601.5,-611.998 1590.91,-611.653 1598.97,-618.526 1601.5,-611.998"/>
</g>
<!-- 21 -->
<g id="node22" class="node"><title>21</title>
<ellipse fill="none" stroke="black" cx="2170" cy="-594" rx="224.46" ry="18"/>
<text text-anchor="middle" x="2170" y="-590.3" font-family="Times,serif" font-size="14.00">&quot;/usr/lib/x86_64&#45;linux&#45;gnu/libboost_python&#45;py27.so.1.58.0&quot;</text>
</g>
<!-- 0&#45;&gt;21 -->
<g id="edge108" class="edge"><title>0&#45;&gt;21</title>
<path fill="none" stroke="black" d="M1855.18,-935.56C1852.07,-925.33 1848.57,-912.08 1847,-900 1832.21,-786.127 1815.83,-721.56 1904,-648 1924.3,-631.068 1977.94,-618.794 2031.79,-610.349"/>
<polygon fill="black" stroke="black" points="2032.48,-613.784 2041.84,-608.816 2031.43,-606.864 2032.48,-613.784"/>
</g>
<!-- 26 -->
<g id="node27" class="node"><title>26</title>
<ellipse fill="none" stroke="black" cx="2274" cy="-882" rx="198.765" ry="18"/>
<text text-anchor="middle" x="2274" y="-878.3" font-family="Times,serif" font-size="14.00">&quot;/usr/lib/x86_64&#45;linux&#45;gnu/libboost_regex.so.1.58.0&quot;</text>
</g>
<!-- 0&#45;&gt;26 -->
<g id="edge109" class="edge"><title>0&#45;&gt;26</title>
<path fill="none" stroke="black" d="M1948.84,-938.112C2015.09,-926.882 2106.02,-911.472 2174.87,-899.801"/>
<polygon fill="black" stroke="black" points="2175.59,-903.229 2184.87,-898.107 2174.42,-896.328 2175.59,-903.229"/>
</g>
<!-- 33 -->
<g id="node34" class="node"><title>33</title>
<ellipse fill="none" stroke="black" cx="942" cy="-594" rx="222.061" ry="18"/>
<text text-anchor="middle" x="942" y="-590.3" font-family="Times,serif" font-size="14.00">&quot;/usr/lib/x86_64&#45;linux&#45;gnu/libboost_serialization.so.1.58.0&quot;</text>
</g>
<!-- 0&#45;&gt;33 -->
<g id="edge110" class="edge"><title>0&#45;&gt;33</title>
<path fill="none" stroke="black" d="M1706.64,-943.998C1620.35,-929.638 1530,-894.634 1530,-811 1530,-811 1530,-811 1530,-737 1530,-654.176 1306.78,-619.507 1135.4,-605.095"/>
<polygon fill="black" stroke="black" points="1135.48,-601.59 1125.23,-604.258 1134.91,-608.566 1135.48,-601.59"/>
</g>
<!-- 34 -->
<g id="node35" class="node"><title>34</title>
<ellipse fill="none" stroke="black" cx="3479" cy="-450" rx="174.369" ry="18"/>
<text text-anchor="middle" x="3479" y="-446.3" font-family="Times,serif" font-size="14.00">&quot;/usr/lib/x86_64&#45;linux&#45;gnu/libcrypto.so.1.0.2&quot;</text>
</g>
<!-- 0&#45;&gt;34 -->
<g id="edge112" class="edge"><title>0&#45;&gt;34</title>
<path fill="none" stroke="black" d="M2044.15,-951.307C2361.68,-947.463 3001.61,-935.458 3223,-900 3364.96,-877.264 3534,-954.771 3534,-811 3534,-811 3534,-811 3534,-593 3534,-552.553 3530.88,-541.199 3515,-504 3510.92,-494.433 3505.01,-484.784 3499.16,-476.388"/>
<polygon fill="black" stroke="black" points="3501.88,-474.174 3493.16,-468.149 3496.22,-478.294 3501.88,-474.174"/>
</g>
<!-- 35 -->
<g id="node36" class="node"><title>35</title>
<ellipse fill="none" stroke="black" cx="3717" cy="-882" rx="147.574" ry="18"/>
<text text-anchor="middle" x="3717" y="-878.3" font-family="Times,serif" font-size="14.00">&quot;/usr/lib/x86_64&#45;linux&#45;gnu/libelf.so.1&quot;</text>
</g>
<!-- 0&#45;&gt;35 -->
<g id="edge113" class="edge"><title>0&#45;&gt;35</title>
<path fill="none" stroke="black" d="M2044.37,-951.37C2354.4,-947.688 3001.78,-936.01 3548,-900 3565.5,-898.846 3584,-897.311 3602.08,-895.633"/>
<polygon fill="black" stroke="black" points="3602.44,-899.114 3612.07,-894.688 3601.78,-892.145 3602.44,-899.114"/>
</g>
<!-- 38 -->
<g id="node39" class="node"><title>38</title>
<ellipse fill="none" stroke="black" cx="2840" cy="-450" rx="180.868" ry="18"/>
<text text-anchor="middle" x="2840" y="-446.3" font-family="Times,serif" font-size="14.00">&quot;/usr/lib/x86_64&#45;linux&#45;gnu/libpython2.7.so.1.0&quot;</text>
</g>
<!-- 0&#45;&gt;38 -->
<g id="edge114" class="edge"><title>0&#45;&gt;38</title>
<path fill="none" stroke="black" d="M2042.18,-950.201C2381.76,-942.528 3080,-914.202 3080,-811 3080,-811 3080,-811 3080,-593 3080,-522.861 3003.14,-486.63 2936.41,-468.392"/>
<polygon fill="black" stroke="black" points="2937.21,-464.984 2926.65,-465.83 2935.43,-471.754 2937.21,-464.984"/>
</g>
<!-- 39 -->
<g id="node40" class="node"><title>39</title>
<ellipse fill="none" stroke="black" cx="3345" cy="-522" rx="161.372" ry="18"/>
<text text-anchor="middle" x="3345" y="-518.3" font-family="Times,serif" font-size="14.00">&quot;/usr/lib/x86_64&#45;linux&#45;gnu/libssl.so.1.0.2&quot;</text>
</g>
<!-- 0&#45;&gt;39 -->
<g id="edge115" class="edge"><title>0&#45;&gt;39</title>
<path fill="none" stroke="black" d="M2045.57,-952.391C2381.73,-950.274 3068.67,-940.926 3170,-900 3225.17,-877.718 3270,-870.497 3270,-811 3270,-811 3270,-811 3270,-665 3270,-619.773 3300.12,-574.846 3322.18,-547.999"/>
<polygon fill="black" stroke="black" points="3324.94,-550.161 3328.73,-540.267 3319.59,-545.637 3324.94,-550.161"/>
</g>
<!-- 2 -->
<g id="node3" class="node"><title>2</title>
<ellipse fill="none" stroke="black" cx="2840" cy="-306" rx="142.175" ry="18"/>
<text text-anchor="middle" x="2840" y="-302.3" font-family="Times,serif" font-size="14.00">&quot;/lib/x86_64&#45;linux&#45;gnu/libz.so.1.2.8&quot;</text>
</g>
<!-- 1&#45;&gt;2 -->
<g id="edge5" class="edge"><title>1&#45;&gt;2</title>
<path fill="none" stroke="black" d="M2840,-359.697C2840,-351.983 2840,-342.712 2840,-334.112"/>
<polygon fill="black" stroke="black" points="2843.5,-334.104 2840,-324.104 2836.5,-334.104 2843.5,-334.104"/>
</g>
<!-- 2&#45;&gt;3 -->
<g id="edge4" class="edge"><title>2&#45;&gt;3</title>
<path fill="none" stroke="black" d="M2737.67,-293.439C2719.79,-291.536 2701.36,-289.649 2684,-288 2486.91,-269.274 2436.24,-278.214 2240,-252 2231.11,-250.812 2221.77,-249.334 2212.6,-247.749"/>
<polygon fill="black" stroke="black" points="2213.2,-244.302 2202.74,-245.996 2211.98,-251.194 2213.2,-244.302"/>
</g>
<!-- 4 -->
<g id="node5" class="node"><title>4</title>
<ellipse fill="none" stroke="black" cx="1688" cy="-162" rx="83.3857" ry="18"/>
<text text-anchor="middle" x="1688" y="-158.3" font-family="Times,serif" font-size="14.00">&quot;/lib32/libc&#45;2.22.so&quot;</text>
</g>
<!-- 3&#45;&gt;4 -->
<g id="edge3" class="edge"><title>3&#45;&gt;4</title>
<path fill="none" stroke="black" d="M2089.2,-223.92C2005.96,-211.28 1855.14,-188.379 1764.01,-174.542"/>
<polygon fill="black" stroke="black" points="1764.43,-171.066 1754.02,-173.025 1763.38,-177.987 1764.43,-171.066"/>
</g>
<!-- 5 -->
<g id="node6" class="node"><title>5</title>
<ellipse fill="none" stroke="black" cx="1122" cy="-90" rx="77.1866" ry="18"/>
<text text-anchor="middle" x="1122" y="-86.3" font-family="Times,serif" font-size="14.00">&quot;/lib/ld&#45;linux.so.2&quot;</text>
</g>
<!-- 4&#45;&gt;5 -->
<g id="edge2" class="edge"><title>4&#45;&gt;5</title>
<path fill="none" stroke="black" d="M1617.75,-152.311C1511.09,-139.121 1309.09,-114.138 1198.72,-100.489"/>
<polygon fill="black" stroke="black" points="1199.01,-96.9979 1188.66,-99.244 1198.15,-103.945 1199.01,-96.9979"/>
</g>
<!-- 6 -->
<g id="node7" class="node"><title>6</title>
<ellipse fill="none" stroke="black" cx="1122" cy="-18" rx="123.478" ry="18"/>
<text text-anchor="middle" x="1122" y="-14.3" font-family="Times,serif" font-size="14.00">&quot;/lib/i386&#45;linux&#45;gnu/ld&#45;2.22.so&quot;</text>
</g>
<!-- 5&#45;&gt;6 -->
<g id="edge1" class="edge"><title>5&#45;&gt;6</title>
<path fill="none" stroke="black" d="M1122,-71.6966C1122,-63.9827 1122,-54.7125 1122,-46.1124"/>
<polygon fill="black" stroke="black" points="1125.5,-46.1043 1122,-36.1043 1118.5,-46.1044 1125.5,-46.1043"/>
</g>
<!-- 8 -->
<g id="node9" class="node"><title>8</title>
<ellipse fill="none" stroke="black" cx="1122" cy="-306" rx="87.1846" ry="18"/>
<text text-anchor="middle" x="1122" y="-302.3" font-family="Times,serif" font-size="14.00">&quot;/lib32/libm&#45;2.22.so&quot;</text>
</g>
<!-- 7&#45;&gt;8 -->
<g id="edge8" class="edge"><title>7&#45;&gt;8</title>
<path fill="none" stroke="black" d="M1080.31,-360.055C1086.84,-351.753 1094.83,-341.584 1102.06,-332.378"/>
<polygon fill="black" stroke="black" points="1105,-334.301 1108.43,-324.275 1099.5,-329.976 1105,-334.301"/>
</g>
<!-- 8&#45;&gt;3 -->
<g id="edge7" class="edge"><title>8&#45;&gt;3</title>
<path fill="none" stroke="black" d="M1184.35,-293.407C1197.1,-291.346 1210.45,-289.411 1223,-288 1533.81,-253.054 1906.05,-240.627 2067.58,-236.664"/>
<polygon fill="black" stroke="black" points="2068,-240.155 2077.91,-236.415 2067.83,-233.157 2068,-240.155"/>
</g>
<!-- 8&#45;&gt;5 -->
<g id="edge6" class="edge"><title>8&#45;&gt;5</title>
<path fill="none" stroke="black" d="M1122,-287.849C1122,-250.832 1122,-163.181 1122,-118.386"/>
<polygon fill="black" stroke="black" points="1125.5,-118.232 1122,-108.232 1118.5,-118.232 1125.5,-118.232"/>
</g>
<!-- 10 -->
<g id="node11" class="node"><title>10</title>
<ellipse fill="none" stroke="black" cx="873" cy="-306" rx="105.881" ry="18"/>
<text text-anchor="middle" x="873" y="-302.3" font-family="Times,serif" font-size="14.00">&quot;/lib32/libpthread&#45;2.22.so&quot;</text>
</g>
<!-- 9&#45;&gt;10 -->
<g id="edge11" class="edge"><title>9&#45;&gt;10</title>
<path fill="none" stroke="black" d="M741.507,-361.465C766.19,-351.241 798.717,-337.768 825.244,-326.78"/>
<polygon fill="black" stroke="black" points="826.821,-329.916 834.721,-322.855 824.142,-323.449 826.821,-329.916"/>
</g>
<!-- 10&#45;&gt;3 -->
<g id="edge10" class="edge"><title>10&#45;&gt;3</title>
<path fill="none" stroke="black" d="M956.285,-294.775C978.878,-292.266 1003.35,-289.791 1026,-288 1415.81,-257.177 1883.25,-242.138 2068.1,-237.056"/>
<polygon fill="black" stroke="black" points="2068.38,-240.55 2078.28,-236.778 2068.19,-233.552 2068.38,-240.55"/>
</g>
<!-- 10&#45;&gt;5 -->
<g id="edge9" class="edge"><title>10&#45;&gt;5</title>
<path fill="none" stroke="black" d="M881.569,-288.043C898.635,-255.813 939.85,-185.255 993,-144 1013.85,-127.82 1040.32,-115.811 1063.86,-107.354"/>
<polygon fill="black" stroke="black" points="1065.09,-110.632 1073.39,-104.059 1062.8,-104.016 1065.09,-110.632"/>
</g>
<!-- 12 -->
<g id="node13" class="node"><title>12</title>
<ellipse fill="none" stroke="black" cx="3979" cy="-666" rx="133.776" ry="18"/>
<text text-anchor="middle" x="3979" y="-662.3" font-family="Times,serif" font-size="14.00">&quot;/lib/x86_64&#45;linux&#45;gnu/ld&#45;2.22.so&quot;</text>
</g>
<!-- 11&#45;&gt;12 -->
<g id="edge12" class="edge"><title>11&#45;&gt;12</title>
<path fill="none" stroke="black" d="M4056.11,-791.836C4063.71,-773.06 4072.24,-742.629 4060,-720 4052.86,-706.788 4040.83,-696.341 4028.2,-688.339"/>
<polygon fill="black" stroke="black" points="4029.8,-685.225 4019.41,-683.186 4026.26,-691.263 4029.8,-685.225"/>
</g>
<!-- 13&#45;&gt;3 -->
<g id="edge28" class="edge"><title>13&#45;&gt;3</title>
<path fill="none" stroke="black" d="M396.149,-651.079C343.811,-642.65 290.326,-629.984 272,-612 213.892,-554.975 186.334,-494.92 238,-432 342.377,-304.886 437.849,-380.839 601,-360 737.237,-342.598 1092.31,-379.375 1218,-324 1239,-314.749 1234.01,-297.26 1255,-288 1328.18,-255.717 1861.34,-241.089 2067.72,-236.592"/>
<polygon fill="black" stroke="black" points="2067.97,-240.087 2077.89,-236.373 2067.82,-233.089 2067.97,-240.087"/>
</g>
<!-- 13&#45;&gt;7 -->
<g id="edge29" class="edge"><title>13&#45;&gt;7</title>
<path fill="none" stroke="black" d="M371.865,-652.648C307.098,-641.138 251.986,-618.91 285,-576 371.198,-463.964 807.973,-406.102 988.623,-386.658"/>
<polygon fill="black" stroke="black" points="989.017,-390.136 998.59,-385.596 988.276,-383.175 989.017,-390.136"/>
</g>
<!-- 13&#45;&gt;9 -->
<g id="edge30" class="edge"><title>13&#45;&gt;9</title>
<path fill="none" stroke="black" d="M385.14,-651.73C329.057,-643.498 271.987,-630.811 252,-612 192.459,-555.963 159.382,-492.845 214,-432 239.442,-403.658 466.508,-389.103 602.439,-382.866"/>
<polygon fill="black" stroke="black" points="602.636,-386.361 612.468,-382.414 602.32,-379.368 602.636,-386.361"/>
</g>
<!-- 14 -->
<g id="node15" class="node"><title>14</title>
<ellipse fill="none" stroke="black" cx="1230" cy="-522" rx="73.387" ry="18"/>
<text text-anchor="middle" x="1230" y="-518.3" font-family="Times,serif" font-size="14.00">&quot;/lib32/librt.so.1&quot;</text>
</g>
<!-- 13&#45;&gt;14 -->
<g id="edge31" class="edge"><title>13&#45;&gt;14</title>
<path fill="none" stroke="black" d="M710.982,-658.03C890.055,-650.191 1134.03,-635.404 1173,-612 1196.25,-598.035 1211.65,-570.526 1220.52,-549.768"/>
<polygon fill="black" stroke="black" points="1223.88,-550.794 1224.36,-540.21 1217.38,-548.188 1223.88,-550.794"/>
</g>
<!-- 13&#45;&gt;16 -->
<g id="edge32" class="edge"><title>13&#45;&gt;16</title>
<path fill="none" stroke="black" d="M512.303,-647.697C510.187,-639.898 507.638,-630.509 505.282,-621.829"/>
<polygon fill="black" stroke="black" points="508.64,-620.838 502.643,-612.104 501.884,-622.672 508.64,-620.838"/>
</g>
<!-- 13&#45;&gt;17 -->
<g id="edge33" class="edge"><title>13&#45;&gt;17</title>
<path fill="none" stroke="black" d="M706.905,-657.397C877.006,-649.3 1113.22,-634.516 1204,-612 1243.03,-602.32 1249.14,-589.552 1287,-576 1396.67,-536.741 1425.15,-528.622 1539,-504 1645.28,-481.015 1692.83,-531.638 1781,-468 1801.54,-453.177 1813.3,-426.234 1819.61,-405.862"/>
<polygon fill="black" stroke="black" points="1822.99,-406.765 1822.35,-396.189 1816.25,-404.853 1822.99,-406.765"/>
</g>
<!-- 13&#45;&gt;18 -->
<g id="edge34" class="edge"><title>13&#45;&gt;18</title>
<path fill="none" stroke="black" d="M730.985,-663.672C1083.01,-660.421 1749.18,-649.344 1785,-612 1796.07,-600.452 1792.31,-590.231 1785,-576 1778.38,-563.106 1767,-552.648 1755.12,-544.534"/>
<polygon fill="black" stroke="black" points="1756.77,-541.435 1746.45,-539.04 1753.02,-547.348 1756.77,-541.435"/>
</g>
<!-- 15 -->
<g id="node16" class="node"><title>15</title>
<ellipse fill="none" stroke="black" cx="1162" cy="-450" rx="85.2851" ry="18"/>
<text text-anchor="middle" x="1162" y="-446.3" font-family="Times,serif" font-size="14.00">&quot;/lib32/librt&#45;2.22.so&quot;</text>
</g>
<!-- 14&#45;&gt;15 -->
<g id="edge15" class="edge"><title>14&#45;&gt;15</title>
<path fill="none" stroke="black" d="M1213.88,-504.411C1205.46,-495.734 1194.98,-484.946 1185.65,-475.342"/>
<polygon fill="black" stroke="black" points="1187.95,-472.69 1178.47,-467.956 1182.93,-477.568 1187.95,-472.69"/>
</g>
<!-- 15&#45;&gt;3 -->
<g id="edge13" class="edge"><title>15&#45;&gt;3</title>
<path fill="none" stroke="black" d="M1173.89,-431.901C1200.7,-393.898 1266.1,-304.467 1299,-288 1366.58,-254.179 1868.34,-240.575 2067.69,-236.468"/>
<polygon fill="black" stroke="black" points="2067.88,-239.965 2077.81,-236.262 2067.74,-232.966 2067.88,-239.965"/>
</g>
<!-- 15&#45;&gt;9 -->
<g id="edge14" class="edge"><title>15&#45;&gt;9</title>
<path fill="none" stroke="black" d="M1098.66,-437.896C1086.82,-435.884 1074.54,-433.842 1063,-432 968.82,-416.964 860.492,-401.178 787.679,-390.787"/>
<polygon fill="black" stroke="black" points="788.04,-387.303 777.646,-389.357 787.052,-394.233 788.04,-387.303"/>
</g>
<!-- 16&#45;&gt;3 -->
<g id="edge22" class="edge"><title>16&#45;&gt;3</title>
<path fill="none" stroke="black" d="M578.086,-577.434C675.476,-558.761 844.959,-527.091 991,-504 1108.4,-485.438 1142.52,-503.369 1256,-468 1289.78,-457.472 1294.88,-446.824 1327,-432 1477.87,-362.383 1511.14,-329.595 1672,-288 1808.01,-252.83 1971.78,-240.997 2067.74,-237.017"/>
<polygon fill="black" stroke="black" points="2068.1,-240.505 2077.95,-236.612 2067.82,-233.511 2068.1,-240.505"/>
</g>
<!-- 16&#45;&gt;7 -->
<g id="edge23" class="edge"><title>16&#45;&gt;7</title>
<path fill="none" stroke="black" d="M542.175,-576.386C646.981,-536.968 910.012,-438.043 1018.77,-397.139"/>
<polygon fill="black" stroke="black" points="1020.06,-400.393 1028.19,-393.597 1017.6,-393.841 1020.06,-400.393"/>
</g>
<!-- 16&#45;&gt;9 -->
<g id="edge24" class="edge"><title>16&#45;&gt;9</title>
<path fill="none" stroke="black" d="M495.059,-575.508C490.658,-543 486.316,-472.875 522,-432 543.287,-407.616 575.083,-394.146 606.169,-386.802"/>
<polygon fill="black" stroke="black" points="607.189,-390.162 616.223,-384.627 605.709,-383.32 607.189,-390.162"/>
</g>
<!-- 16&#45;&gt;14 -->
<g id="edge25" class="edge"><title>16&#45;&gt;14</title>
<path fill="none" stroke="black" d="M630.984,-580.283C783.532,-565.695 1028.53,-542.266 1152.62,-530.4"/>
<polygon fill="black" stroke="black" points="1153.17,-533.863 1162.79,-529.427 1152.5,-526.895 1153.17,-533.863"/>
</g>
<!-- 16&#45;&gt;17 -->
<g id="edge26" class="edge"><title>16&#45;&gt;17</title>
<path fill="none" stroke="black" d="M640.155,-581.043C761.489,-570.225 926.301,-553.905 991,-540 1041.29,-529.192 1050.46,-513.592 1101,-504 1234.63,-478.637 1589.17,-526.407 1712,-468 1731.6,-458.679 1728.46,-446.051 1745,-432 1758.47,-420.558 1774.54,-409.572 1788.81,-400.599"/>
<polygon fill="black" stroke="black" points="1790.75,-403.516 1797.42,-395.285 1787.07,-397.56 1790.75,-403.516"/>
</g>
<!-- 16&#45;&gt;18 -->
<g id="edge27" class="edge"><title>16&#45;&gt;18</title>
<path fill="none" stroke="black" d="M640.606,-581.089C664.116,-579.278 688.236,-577.511 711,-576 1033.58,-554.583 1415.16,-536.315 1599.82,-527.922"/>
<polygon fill="black" stroke="black" points="1599.98,-531.419 1609.81,-527.469 1599.66,-524.426 1599.98,-531.419"/>
</g>
<!-- 17&#45;&gt;3 -->
<g id="edge16" class="edge"><title>17&#45;&gt;3</title>
<path fill="none" stroke="black" d="M1843.16,-359.99C1864.37,-339.895 1902.43,-306.825 1941,-288 1984.31,-266.86 2036.95,-253.552 2078.44,-245.559"/>
<polygon fill="black" stroke="black" points="2079.27,-248.964 2088.46,-243.689 2077.99,-242.083 2079.27,-248.964"/>
</g>
<!-- 19 -->
<g id="node20" class="node"><title>19</title>
<ellipse fill="none" stroke="black" cx="1579" cy="-450" rx="124.278" ry="18"/>
<text text-anchor="middle" x="1579" y="-446.3" font-family="Times,serif" font-size="14.00">&quot;/usr/lib32/libstdc++.so.6.0.21&quot;</text>
</g>
<!-- 18&#45;&gt;19 -->
<g id="edge21" class="edge"><title>18&#45;&gt;19</title>
<path fill="none" stroke="black" d="M1680.38,-504.765C1662.24,-495.142 1639.03,-482.832 1619.39,-472.419"/>
<polygon fill="black" stroke="black" points="1620.84,-469.226 1610.37,-467.633 1617.56,-475.411 1620.84,-469.226"/>
</g>
<!-- 19&#45;&gt;3 -->
<g id="edge18" class="edge"><title>19&#45;&gt;3</title>
<path fill="none" stroke="black" d="M1602.01,-432.299C1628.65,-413.389 1674.22,-382.313 1716,-360 1787.66,-321.733 1806.42,-312.095 1884,-288 1948.4,-267.997 2024.03,-253.748 2077.97,-245.097"/>
<polygon fill="black" stroke="black" points="2078.79,-248.512 2088.12,-243.495 2077.69,-241.597 2078.79,-248.512"/>
</g>
<!-- 19&#45;&gt;5 -->
<g id="edge17" class="edge"><title>19&#45;&gt;5</title>
<path fill="none" stroke="black" d="M1511.47,-434.88C1365.64,-404.233 1033.67,-333.593 1026,-324 973.456,-258.254 1054.09,-159.748 1097.42,-114.842"/>
<polygon fill="black" stroke="black" points="1100.02,-117.19 1104.53,-107.603 1095.03,-112.284 1100.02,-117.19"/>
</g>
<!-- 19&#45;&gt;7 -->
<g id="edge19" class="edge"><title>19&#45;&gt;7</title>
<path fill="none" stroke="black" d="M1492.15,-437.125C1393.42,-423.628 1233.95,-401.826 1140.94,-389.109"/>
<polygon fill="black" stroke="black" points="1141.15,-385.605 1130.77,-387.718 1140.2,-392.54 1141.15,-385.605"/>
</g>
<!-- 19&#45;&gt;17 -->
<g id="edge20" class="edge"><title>19&#45;&gt;17</title>
<path fill="none" stroke="black" d="M1632.9,-433.725C1671.85,-422.687 1724.51,-407.764 1765,-396.289"/>
<polygon fill="black" stroke="black" points="1766.08,-399.619 1774.75,-393.525 1764.17,-392.884 1766.08,-399.619"/>
</g>
<!-- 20&#45;&gt;3 -->
<g id="edge35" class="edge"><title>20&#45;&gt;3</title>
<path fill="none" stroke="black" d="M1545.41,-575.707C1558.44,-552.409 1581.96,-512.83 1596,-504 1689.53,-445.168 1740.11,-510.751 1842,-468 1962.94,-417.257 2078.66,-307.62 2126.25,-259.026"/>
<polygon fill="black" stroke="black" points="2128.84,-261.383 2133.3,-251.769 2123.82,-256.507 2128.84,-261.383"/>
</g>
<!-- 20&#45;&gt;7 -->
<g id="edge36" class="edge"><title>20&#45;&gt;7</title>
<path fill="none" stroke="black" d="M1511.23,-575.912C1463.69,-543.771 1355.52,-473.798 1256,-432 1215.94,-415.174 1168.89,-401.96 1131.76,-392.935"/>
<polygon fill="black" stroke="black" points="1132.11,-389.419 1121.57,-390.501 1130.48,-396.228 1132.11,-389.419"/>
</g>
<!-- 20&#45;&gt;9 -->
<g id="edge37" class="edge"><title>20&#45;&gt;9</title>
<path fill="none" stroke="black" d="M1491.43,-576.268C1464.34,-566.001 1429.08,-552.472 1398,-540 1359.54,-524.57 1352.01,-514.766 1312,-504 1192.12,-471.744 1156.77,-492.172 1035,-468 937.289,-448.604 825.827,-416.517 760.381,-396.631"/>
<polygon fill="black" stroke="black" points="761.26,-393.24 750.674,-393.668 759.217,-399.935 761.26,-393.24"/>
</g>
<!-- 20&#45;&gt;14 -->
<g id="edge38" class="edge"><title>20&#45;&gt;14</title>
<path fill="none" stroke="black" d="M1465.03,-576.765C1412.67,-564.787 1342.11,-548.646 1292,-537.184"/>
<polygon fill="black" stroke="black" points="1292.48,-533.703 1281.95,-534.884 1290.92,-540.526 1292.48,-533.703"/>
</g>
<!-- 20&#45;&gt;17 -->
<g id="edge39" class="edge"><title>20&#45;&gt;17</title>
<path fill="none" stroke="black" d="M1536.03,-575.656C1537.08,-555.233 1542.14,-521.839 1563,-504 1650.99,-428.757 1742.58,-553.174 1821,-468 1836.02,-451.69 1835.79,-425.765 1832.68,-406.093"/>
<polygon fill="black" stroke="black" points="1836.11,-405.354 1830.8,-396.184 1829.23,-406.662 1836.11,-405.354"/>
</g>
<!-- 20&#45;&gt;18 -->
<g id="edge40" class="edge"><title>20&#45;&gt;18</title>
<path fill="none" stroke="black" d="M1577.92,-576.233C1603.22,-566.111 1635.59,-553.165 1662.06,-542.575"/>
<polygon fill="black" stroke="black" points="1663.54,-545.753 1671.53,-538.789 1660.94,-539.254 1663.54,-545.753"/>
</g>
<!-- 21&#45;&gt;3 -->
<g id="edge46" class="edge"><title>21&#45;&gt;3</title>
<path fill="none" stroke="black" d="M2157.78,-576.019C2140.49,-550.297 2111,-499.32 2111,-451 2111,-451 2111,-451 2111,-377 2111,-335.633 2126.23,-289.722 2137.41,-261.605"/>
<polygon fill="black" stroke="black" points="2140.76,-262.673 2141.31,-252.093 2134.28,-260.019 2140.76,-262.673"/>
</g>
<!-- 21&#45;&gt;7 -->
<g id="edge48" class="edge"><title>21&#45;&gt;7</title>
<path fill="none" stroke="black" d="M2091.51,-577.086C2048.93,-567.727 1995.62,-554.829 1949,-540 1907.95,-526.942 1900.94,-513.844 1859,-504 1665.39,-458.561 1607.69,-508.565 1413,-468 1364.7,-457.937 1355.5,-445.32 1308,-432 1250.04,-415.748 1183.11,-401.371 1134.51,-391.705"/>
<polygon fill="black" stroke="black" points="1134.91,-388.218 1124.42,-389.715 1133.56,-395.086 1134.91,-388.218"/>
</g>
<!-- 21&#45;&gt;9 -->
<g id="edge49" class="edge"><title>21&#45;&gt;9</title>
<path fill="none" stroke="black" d="M2039.64,-579.341C1969.06,-570.278 1890.08,-556.933 1859,-540 1839.94,-529.616 1845.65,-513.209 1826,-504 1673.3,-432.454 1233.05,-502.593 1068,-468 1024.21,-458.823 1017,-444.354 974,-432 911.761,-414.117 839.726,-400.312 785.723,-391.28"/>
<polygon fill="black" stroke="black" points="786.293,-387.827 775.856,-389.649 785.151,-394.733 786.293,-387.827"/>
</g>
<!-- 21&#45;&gt;14 -->
<g id="edge50" class="edge"><title>21&#45;&gt;14</title>
<path fill="none" stroke="black" d="M2011.87,-581.224C1808.87,-566.107 1464.4,-540.456 1309.56,-528.924"/>
<polygon fill="black" stroke="black" points="1309.42,-525.404 1299.19,-528.152 1308.9,-532.385 1309.42,-525.404"/>
</g>
<!-- 21&#45;&gt;17 -->
<g id="edge52" class="edge"><title>21&#45;&gt;17</title>
<path fill="none" stroke="black" d="M2095.58,-577.005C2065.3,-568.628 2030.74,-556.582 2002,-540 1937.74,-502.93 1877.23,-438.904 1846.69,-403.8"/>
<polygon fill="black" stroke="black" points="1849.11,-401.245 1839.94,-395.943 1843.8,-405.808 1849.11,-401.245"/>
</g>
<!-- 21&#45;&gt;18 -->
<g id="edge53" class="edge"><title>21&#45;&gt;18</title>
<path fill="none" stroke="black" d="M2070.69,-577.854C1989.2,-565.427 1875,-548.011 1797.29,-536.159"/>
<polygon fill="black" stroke="black" points="1797.46,-532.645 1787.05,-534.597 1796.4,-539.565 1797.46,-532.645"/>
</g>
<!-- 22 -->
<g id="node23" class="node"><title>22</title>
<ellipse fill="none" stroke="black" cx="3136" cy="-378" rx="74.9875" ry="18"/>
<text text-anchor="middle" x="3136" y="-374.3" font-family="Times,serif" font-size="14.00">&quot;/lib32/libdl.so.2&quot;</text>
</g>
<!-- 21&#45;&gt;22 -->
<g id="edge47" class="edge"><title>21&#45;&gt;22</title>
<path fill="none" stroke="black" d="M2226.47,-576.578C2299.21,-556.113 2429.9,-521.687 2544,-504 2651.02,-487.412 2929.68,-508.791 3030,-468 3064.34,-454.035 3095.79,-424.575 3115.36,-403.37"/>
<polygon fill="black" stroke="black" points="3118.18,-405.473 3122.26,-395.697 3112.97,-400.793 3118.18,-405.473"/>
</g>
<!-- 24 -->
<g id="node25" class="node"><title>24</title>
<ellipse fill="none" stroke="black" cx="2268" cy="-378" rx="79.0865" ry="18"/>
<text text-anchor="middle" x="2268" y="-374.3" font-family="Times,serif" font-size="14.00">&quot;/lib32/libutil.so.1&quot;</text>
</g>
<!-- 21&#45;&gt;24 -->
<g id="edge51" class="edge"><title>21&#45;&gt;24</title>
<path fill="none" stroke="black" d="M2170.35,-575.712C2171.7,-544.728 2177.94,-478.627 2206,-432 2213.03,-420.32 2223.54,-409.93 2233.92,-401.511"/>
<polygon fill="black" stroke="black" points="2236.34,-404.061 2242.14,-395.195 2232.08,-398.509 2236.34,-404.061"/>
</g>
<!-- 23 -->
<g id="node24" class="node"><title>23</title>
<ellipse fill="none" stroke="black" cx="3590" cy="-306" rx="86.3847" ry="18"/>
<text text-anchor="middle" x="3590" y="-302.3" font-family="Times,serif" font-size="14.00">&quot;/lib32/libdl&#45;2.22.so&quot;</text>
</g>
<!-- 22&#45;&gt;23 -->
<g id="edge43" class="edge"><title>22&#45;&gt;23</title>
<path fill="none" stroke="black" d="M3197.23,-367.559C3278.91,-354.965 3423.57,-332.661 3512.69,-318.92"/>
<polygon fill="black" stroke="black" points="3513.39,-322.354 3522.74,-317.371 3512.32,-315.436 3513.39,-322.354"/>
</g>
<!-- 23&#45;&gt;3 -->
<g id="edge42" class="edge"><title>23&#45;&gt;3</title>
<path fill="none" stroke="black" d="M3528.84,-293.212C3516.05,-291.139 3502.62,-289.248 3490,-288 2936.91,-233.293 2792.62,-311.211 2240,-252 2230.85,-251.019 2221.23,-249.626 2211.82,-248.055"/>
<polygon fill="black" stroke="black" points="2212.18,-244.564 2201.73,-246.29 2210.97,-251.459 2212.18,-244.564"/>
</g>
<!-- 23&#45;&gt;5 -->
<g id="edge41" class="edge"><title>23&#45;&gt;5</title>
<path fill="none" stroke="black" d="M3527.44,-293.531C3515.06,-291.498 3502.14,-289.54 3490,-288 2733.38,-192.003 2540.12,-206.617 1780,-144 1572.81,-126.932 1328.86,-107.441 1204.28,-97.5306"/>
<polygon fill="black" stroke="black" points="1204.3,-94.0217 1194.06,-96.7178 1203.75,-101 1204.3,-94.0217"/>
</g>
<!-- 25 -->
<g id="node26" class="node"><title>25</title>
<ellipse fill="none" stroke="black" cx="2268" cy="-306" rx="90.9839" ry="18"/>
<text text-anchor="middle" x="2268" y="-302.3" font-family="Times,serif" font-size="14.00">&quot;/lib32/libutil&#45;2.22.so&quot;</text>
</g>
<!-- 24&#45;&gt;25 -->
<g id="edge45" class="edge"><title>24&#45;&gt;25</title>
<path fill="none" stroke="black" d="M2268,-359.697C2268,-351.983 2268,-342.712 2268,-334.112"/>
<polygon fill="black" stroke="black" points="2271.5,-334.104 2268,-324.104 2264.5,-334.104 2271.5,-334.104"/>
</g>
<!-- 25&#45;&gt;3 -->
<g id="edge44" class="edge"><title>25&#45;&gt;3</title>
<path fill="none" stroke="black" d="M2240.4,-288.765C2223.91,-279.066 2202.78,-266.638 2185,-256.174"/>
<polygon fill="black" stroke="black" points="2186.43,-252.959 2176.04,-250.906 2182.88,-258.993 2186.43,-252.959"/>
</g>
<!-- 26&#45;&gt;3 -->
<g id="edge71" class="edge"><title>26&#45;&gt;3</title>
<path fill="none" stroke="black" d="M2465.74,-877.192C2660.44,-871.651 2938.9,-858.464 2979,-828 3018.31,-798.135 3012.7,-768.766 3005,-720 2989.25,-620.321 3012.73,-568.355 2935,-504 2836.66,-422.581 2766.09,-521.134 2650,-468 2628.25,-458.046 2627.83,-447.945 2610,-432 2535.44,-365.307 2528.22,-329.068 2437,-288 2370.5,-258.061 2288.09,-245.033 2228.49,-239.365"/>
<polygon fill="black" stroke="black" points="2228.66,-235.865 2218.38,-238.453 2228.03,-242.837 2228.66,-235.865"/>
</g>
<!-- 26&#45;&gt;7 -->
<g id="edge72" class="edge"><title>26&#45;&gt;7</title>
<path fill="none" stroke="black" d="M2092.62,-874.604C1621.1,-856.426 383.371,-798.241 240,-684 152.404,-614.202 149.252,-500.327 238,-432 288.195,-393.355 743.782,-400.067 807,-396 866.672,-392.161 934.042,-387.754 985.251,-384.389"/>
<polygon fill="black" stroke="black" points="985.521,-387.879 995.27,-383.731 985.062,-380.894 985.521,-387.879"/>
</g>
<!-- 26&#45;&gt;9 -->
<g id="edge73" class="edge"><title>26&#45;&gt;9</title>
<path fill="none" stroke="black" d="M2078.02,-878.709C1532.8,-871.05 38,-840.772 38,-739 38,-739 38,-739 38,-521 38,-480.031 30.5309,-458.232 62,-432 102.377,-398.343 429.701,-385.536 600.732,-381.108"/>
<polygon fill="black" stroke="black" points="600.855,-384.606 610.763,-380.853 600.677,-377.608 600.855,-384.606"/>
</g>
<!-- 26&#45;&gt;14 -->
<g id="edge74" class="edge"><title>26&#45;&gt;14</title>
<path fill="none" stroke="black" d="M2222.55,-864.47C2095.44,-823.999 1756,-718.134 1468,-648 1388.31,-628.594 1354.75,-658.227 1287,-612 1264.73,-596.803 1249.24,-569.726 1240.09,-549.416"/>
<polygon fill="black" stroke="black" points="1243.25,-547.897 1236.11,-540.071 1236.81,-550.643 1243.25,-547.897"/>
</g>
<!-- 26&#45;&gt;17 -->
<g id="edge78" class="edge"><title>26&#45;&gt;17</title>
<path fill="none" stroke="black" d="M2329.55,-864.705C2384.36,-844.803 2460,-805.323 2460,-739 2460,-739 2460,-739 2460,-665 2460,-624.031 2465.55,-604.373 2436,-576 2383.73,-525.82 2347.32,-557.469 2277,-540 2158.14,-510.471 2117.81,-527.936 2011,-468 1990.71,-456.615 1992.81,-444.204 1973,-432 1947.9,-416.537 1917.63,-404.653 1891.09,-396.094"/>
<polygon fill="black" stroke="black" points="1892.09,-392.739 1881.5,-393.091 1890,-399.42 1892.09,-392.739"/>
</g>
<!-- 26&#45;&gt;18 -->
<g id="edge79" class="edge"><title>26&#45;&gt;18</title>
<path fill="none" stroke="black" d="M2247.26,-863.968C2183.84,-823.181 2020.22,-715.576 1894,-612 1876.02,-597.242 1875.78,-588.247 1856,-576 1831.55,-560.861 1802.12,-549.102 1776.19,-540.549"/>
<polygon fill="black" stroke="black" points="1777.03,-537.143 1766.44,-537.428 1774.89,-543.81 1777.03,-537.143"/>
</g>
<!-- 27 -->
<g id="node28" class="node"><title>27</title>
<ellipse fill="none" stroke="black" cx="2732" cy="-522" rx="167.87" ry="18"/>
<text text-anchor="middle" x="2732" y="-518.3" font-family="Times,serif" font-size="14.00">&quot;/usr/lib/x86_64&#45;linux&#45;gnu/libicudata.so.55&quot;</text>
</g>
<!-- 26&#45;&gt;27 -->
<g id="edge75" class="edge"><title>26&#45;&gt;27</title>
<path fill="none" stroke="black" d="M2468.57,-878.103C2656.15,-873.361 2916.57,-860.871 2951,-828 3034.42,-748.349 2975.78,-651.979 2889,-576 2870.64,-559.927 2847.22,-548.687 2824.09,-540.841"/>
<polygon fill="black" stroke="black" points="2825.16,-537.507 2814.57,-537.788 2823.02,-544.173 2825.16,-537.507"/>
</g>
<!-- 29 -->
<g id="node30" class="node"><title>29</title>
<ellipse fill="none" stroke="black" cx="2773" cy="-810" rx="168.97" ry="18"/>
<text text-anchor="middle" x="2773" y="-806.3" font-family="Times,serif" font-size="14.00">&quot;/usr/lib/x86_64&#45;linux&#45;gnu/libicui18n.so.55&quot;</text>
</g>
<!-- 26&#45;&gt;29 -->
<g id="edge76" class="edge"><title>26&#45;&gt;29</title>
<path fill="none" stroke="black" d="M2376.79,-866.581C2460.9,-854.781 2579.52,-838.141 2665.02,-826.148"/>
<polygon fill="black" stroke="black" points="2665.6,-829.601 2675.01,-824.745 2664.62,-822.669 2665.6,-829.601"/>
</g>
<!-- 31 -->
<g id="node32" class="node"><title>31</title>
<ellipse fill="none" stroke="black" cx="2656" cy="-666" rx="161.372" ry="18"/>
<text text-anchor="middle" x="2656" y="-662.3" font-family="Times,serif" font-size="14.00">&quot;/usr/lib/x86_64&#45;linux&#45;gnu/libicuuc.so.55&quot;</text>
</g>
<!-- 26&#45;&gt;31 -->
<g id="edge77" class="edge"><title>26&#45;&gt;31</title>
<path fill="none" stroke="black" d="M2367.12,-866.08C2402.06,-858.02 2441.22,-845.914 2474,-828 2536.39,-793.908 2538.38,-766.687 2592,-720 2603.38,-710.09 2616.15,-699.429 2627.27,-690.286"/>
<polygon fill="black" stroke="black" points="2629.51,-692.973 2635.03,-683.929 2625.07,-687.557 2629.51,-692.973"/>
</g>
<!-- 28 -->
<g id="node29" class="node"><title>28</title>
<ellipse fill="none" stroke="black" cx="2390" cy="-450" rx="174.669" ry="18"/>
<text text-anchor="middle" x="2390" y="-446.3" font-family="Times,serif" font-size="14.00">&quot;/usr/lib/x86_64&#45;linux&#45;gnu/libicudata.so.55.1&quot;</text>
</g>
<!-- 27&#45;&gt;28 -->
<g id="edge55" class="edge"><title>27&#45;&gt;28</title>
<path fill="none" stroke="black" d="M2657.79,-505.811C2603.86,-494.773 2530.78,-479.814 2474.59,-468.313"/>
<polygon fill="black" stroke="black" points="2475.15,-464.856 2464.65,-466.28 2473.75,-471.714 2475.15,-464.856"/>
</g>
<!-- 28&#45;&gt;3 -->
<g id="edge54" class="edge"><title>28&#45;&gt;3</title>
<path fill="none" stroke="black" d="M2393.29,-431.889C2398.47,-399.396 2404.49,-328.406 2368,-288 2357.58,-276.467 2275.72,-258.831 2215.12,-247.112"/>
<polygon fill="black" stroke="black" points="2215.69,-243.659 2205.21,-245.212 2214.37,-250.533 2215.69,-243.659"/>
</g>
<!-- 30 -->
<g id="node31" class="node"><title>30</title>
<ellipse fill="none" stroke="black" cx="2776" cy="-738" rx="175.469" ry="18"/>
<text text-anchor="middle" x="2776" y="-734.3" font-family="Times,serif" font-size="14.00">&quot;/usr/lib/x86_64&#45;linux&#45;gnu/libicui18n.so.55.1&quot;</text>
</g>
<!-- 29&#45;&gt;30 -->
<g id="edge70" class="edge"><title>29&#45;&gt;30</title>
<path fill="none" stroke="black" d="M2773.74,-791.697C2774.07,-783.983 2774.47,-774.712 2774.84,-766.112"/>
<polygon fill="black" stroke="black" points="2778.34,-766.245 2775.27,-756.104 2771.34,-765.945 2778.34,-766.245"/>
</g>
<!-- 30&#45;&gt;3 -->
<g id="edge63" class="edge"><title>30&#45;&gt;3</title>
<path fill="none" stroke="black" d="M2837.31,-721.012C2856.69,-712.988 2876.34,-701.182 2889,-684 2936.75,-619.204 2962.32,-564.298 2909,-504 2865.69,-455.022 2676.97,-494.052 2617,-468 2594.14,-458.068 2593.33,-447.734 2574,-432 2494,-366.887 2485.23,-332.125 2392,-288 2339.15,-262.985 2274.21,-249.605 2224.77,-242.549"/>
<polygon fill="black" stroke="black" points="2225.16,-239.071 2214.78,-241.18 2224.21,-246.006 2225.16,-239.071"/>
</g>
<!-- 30&#45;&gt;7 -->
<g id="edge65" class="edge"><title>30&#45;&gt;7</title>
<path fill="none" stroke="black" d="M2601.97,-735.362C2045.55,-729.862 343.072,-710.872 292,-684 248.883,-661.314 228,-643.721 228,-595 228,-595 228,-595 228,-521 228,-389.573 381.2,-458.148 510,-432 598.72,-413.989 853.529,-394.109 985.535,-384.629"/>
<polygon fill="black" stroke="black" points="985.872,-388.114 995.597,-383.91 985.372,-381.132 985.872,-388.114"/>
</g>
<!-- 30&#45;&gt;17 -->
<g id="edge68" class="edge"><title>30&#45;&gt;17</title>
<path fill="none" stroke="black" d="M2797.76,-719.954C2808.15,-710.537 2819.67,-697.934 2826,-684 2845.9,-640.21 2864.75,-612.13 2833,-576 2791.88,-529.209 2616.44,-550.3 2555,-540 2398.8,-513.812 2360.67,-502.061 2206,-468 2147.1,-455.03 1986.37,-417.063 1893.91,-395.135"/>
<polygon fill="black" stroke="black" points="1894.62,-391.707 1884.08,-392.804 1893.01,-398.518 1894.62,-391.707"/>
</g>
<!-- 30&#45;&gt;18 -->
<g id="edge69" class="edge"><title>30&#45;&gt;18</title>
<path fill="none" stroke="black" d="M2643.97,-726.118C2440.45,-707.877 2060.66,-667.588 1937,-612 1914.27,-601.781 1916,-587.718 1894,-576 1861.58,-558.732 1822.86,-546.473 1789.4,-538.126"/>
<polygon fill="black" stroke="black" points="1790.2,-534.718 1779.65,-535.768 1788.55,-541.522 1790.2,-534.718"/>
</g>
<!-- 30&#45;&gt;22 -->
<g id="edge64" class="edge"><title>30&#45;&gt;22</title>
<path fill="none" stroke="black" d="M2853.48,-721.728C2882.82,-713.592 2915.51,-701.527 2942,-684 3047.66,-614.099 3078.63,-584.673 3128,-468 3136.25,-448.504 3137.98,-424.506 3137.79,-406.344"/>
<polygon fill="black" stroke="black" points="3141.28,-406.033 3137.48,-396.143 3134.29,-406.244 3141.28,-406.033"/>
</g>
<!-- 30&#45;&gt;27 -->
<g id="edge66" class="edge"><title>30&#45;&gt;27</title>
<path fill="none" stroke="black" d="M2823.61,-720.45C2840.03,-712.189 2856.64,-700.372 2866,-684 2889.82,-642.328 2892.99,-615.695 2866,-576 2855.5,-560.551 2839.72,-549.605 2822.64,-541.85"/>
<polygon fill="black" stroke="black" points="2823.62,-538.467 2813.04,-537.862 2820.93,-544.931 2823.62,-538.467"/>
</g>
<!-- 30&#45;&gt;31 -->
<g id="edge67" class="edge"><title>30&#45;&gt;31</title>
<path fill="none" stroke="black" d="M2747.26,-720.233C2731.2,-710.865 2710.99,-699.078 2693.68,-688.978"/>
<polygon fill="black" stroke="black" points="2695.33,-685.888 2684.92,-683.873 2691.8,-691.935 2695.33,-685.888"/>
</g>
<!-- 32 -->
<g id="node33" class="node"><title>32</title>
<ellipse fill="none" stroke="black" cx="2656" cy="-594" rx="168.17" ry="18"/>
<text text-anchor="middle" x="2656" y="-590.3" font-family="Times,serif" font-size="14.00">&quot;/usr/lib/x86_64&#45;linux&#45;gnu/libicuuc.so.55.1&quot;</text>
</g>
<!-- 31&#45;&gt;32 -->
<g id="edge62" class="edge"><title>31&#45;&gt;32</title>
<path fill="none" stroke="black" d="M2656,-647.697C2656,-639.983 2656,-630.712 2656,-622.112"/>
<polygon fill="black" stroke="black" points="2659.5,-622.104 2656,-612.104 2652.5,-622.104 2659.5,-622.104"/>
</g>
<!-- 32&#45;&gt;3 -->
<g id="edge56" class="edge"><title>32&#45;&gt;3</title>
<path fill="none" stroke="black" d="M2593.53,-577.262C2473.35,-546.763 2220.47,-481.42 2206,-468 2147.8,-414.039 2144.66,-311.284 2146.86,-262.295"/>
<polygon fill="black" stroke="black" points="2150.37,-262.327 2147.43,-252.147 2143.38,-261.935 2150.37,-262.327"/>
</g>
<!-- 32&#45;&gt;7 -->
<g id="edge58" class="edge"><title>32&#45;&gt;7</title>
<path fill="none" stroke="black" d="M2555.88,-579.512C2414.1,-560.734 2146.61,-526.492 1918,-504 1708.62,-483.4 1648.61,-524.663 1446,-468 1411.93,-458.471 1408.59,-443.124 1375,-432 1299.74,-407.074 1210.05,-393.335 1146.93,-386.134"/>
<polygon fill="black" stroke="black" points="1146.96,-382.617 1136.64,-384.991 1146.19,-389.574 1146.96,-382.617"/>
</g>
<!-- 32&#45;&gt;17 -->
<g id="edge60" class="edge"><title>32&#45;&gt;17</title>
<path fill="none" stroke="black" d="M2542.27,-580.685C2462.45,-570.932 2363.37,-556.276 2325,-540 2300.45,-529.588 2301.52,-514.472 2277,-504 2186.69,-465.435 2149.31,-506.565 2059,-468 2034.48,-457.528 2034.88,-443.869 2011,-432 1976.83,-415.015 1936.32,-402.635 1901.93,-394.133"/>
<polygon fill="black" stroke="black" points="1902.48,-390.665 1891.94,-391.728 1900.84,-397.471 1902.48,-390.665"/>
</g>
<!-- 32&#45;&gt;18 -->
<g id="edge61" class="edge"><title>32&#45;&gt;18</title>
<path fill="none" stroke="black" d="M2522.11,-583.082C2332.28,-569.021 1988.83,-543.58 1816.14,-530.788"/>
<polygon fill="black" stroke="black" points="1816.25,-527.287 1806.02,-530.039 1815.74,-534.268 1816.25,-527.287"/>
</g>
<!-- 32&#45;&gt;22 -->
<g id="edge57" class="edge"><title>32&#45;&gt;22</title>
<path fill="none" stroke="black" d="M2600.87,-576.943C2583.07,-568.858 2565.3,-557.031 2555,-540 2546.72,-526.308 2544.06,-515.68 2555,-504 2638.11,-415.235 3002.82,-539.734 3101,-468 3120.64,-453.654 3129.26,-426.59 3133.05,-406.057"/>
<polygon fill="black" stroke="black" points="3136.53,-406.438 3134.62,-396.017 3129.61,-405.356 3136.53,-406.438"/>
</g>
<!-- 32&#45;&gt;27 -->
<g id="edge59" class="edge"><title>32&#45;&gt;27</title>
<path fill="none" stroke="black" d="M2674.4,-576.055C2683.85,-567.349 2695.53,-556.591 2705.9,-547.043"/>
<polygon fill="black" stroke="black" points="2708.52,-549.381 2713.51,-540.032 2703.78,-544.232 2708.52,-549.381"/>
</g>
<!-- 33&#45;&gt;3 -->
<g id="edge80" class="edge"><title>33&#45;&gt;3</title>
<path fill="none" stroke="black" d="M966.727,-575.994C997.639,-555.584 1052.85,-521.88 1105,-504 1199.55,-471.585 1230.61,-494.467 1327,-468 1537.51,-410.196 1573.02,-344.058 1784,-288 1881.23,-262.166 1996.59,-248.079 2071.21,-241.051"/>
<polygon fill="black" stroke="black" points="2071.82,-244.509 2081.46,-240.106 2071.18,-237.539 2071.82,-244.509"/>
</g>
<!-- 33&#45;&gt;7 -->
<g id="edge81" class="edge"><title>33&#45;&gt;7</title>
<path fill="none" stroke="black" d="M952.018,-575.849C973.923,-538.348 1026.18,-448.881 1052.02,-404.652"/>
<polygon fill="black" stroke="black" points="1055.09,-406.336 1057.11,-395.935 1049.04,-402.805 1055.09,-406.336"/>
</g>
<!-- 33&#45;&gt;9 -->
<g id="edge82" class="edge"><title>33&#45;&gt;9</title>
<path fill="none" stroke="black" d="M922.926,-575.849C880.608,-537.799 778.791,-446.249 730.4,-402.738"/>
<polygon fill="black" stroke="black" points="732.611,-400.019 722.835,-395.935 727.931,-405.224 732.611,-400.019"/>
</g>
<!-- 33&#45;&gt;14 -->
<g id="edge83" class="edge"><title>33&#45;&gt;14</title>
<path fill="none" stroke="black" d="M1008.8,-576.765C1057.51,-564.925 1122.95,-549.018 1170,-537.582"/>
<polygon fill="black" stroke="black" points="1170.86,-540.976 1179.75,-535.213 1169.21,-534.174 1170.86,-540.976"/>
</g>
<!-- 33&#45;&gt;17 -->
<g id="edge84" class="edge"><title>33&#45;&gt;17</title>
<path fill="none" stroke="black" d="M1011.03,-576.882C1041,-568.307 1075.84,-556.145 1105,-540 1126.8,-527.926 1124.84,-513.213 1148,-504 1271.49,-454.872 1625.11,-525.37 1745,-468 1773.53,-454.348 1796.64,-425.723 1810.77,-404.605"/>
<polygon fill="black" stroke="black" points="1813.78,-406.382 1816.26,-396.08 1807.9,-402.59 1813.78,-406.382"/>
</g>
<!-- 33&#45;&gt;18 -->
<g id="edge85" class="edge"><title>33&#45;&gt;18</title>
<path fill="none" stroke="black" d="M1083.94,-580.079C1236.53,-566.19 1475.24,-544.46 1609.85,-532.208"/>
<polygon fill="black" stroke="black" points="1610.51,-535.662 1620.15,-531.27 1609.88,-528.691 1610.51,-535.662"/>
</g>
<!-- 34&#45;&gt;3 -->
<g id="edge86" class="edge"><title>34&#45;&gt;3</title>
<path fill="none" stroke="black" d="M3466.01,-431.915C3438.34,-397.096 3369.69,-318.63 3291,-288 3182.11,-245.614 2356.15,-264.765 2240,-252 2230.85,-250.994 2221.24,-249.588 2211.83,-248.01"/>
<polygon fill="black" stroke="black" points="2212.18,-244.519 2201.73,-246.241 2210.98,-251.414 2212.18,-244.519"/>
</g>
<!-- 34&#45;&gt;22 -->
<g id="edge87" class="edge"><title>34&#45;&gt;22</title>
<path fill="none" stroke="black" d="M3404.15,-433.725C3343.53,-421.353 3258.99,-404.1 3201.13,-392.293"/>
<polygon fill="black" stroke="black" points="3201.51,-388.797 3191.01,-390.227 3200.11,-395.656 3201.51,-388.797"/>
</g>
<!-- 36 -->
<g id="node37" class="node"><title>36</title>
<ellipse fill="none" stroke="black" cx="3725" cy="-810" rx="163.271" ry="18"/>
<text text-anchor="middle" x="3725" y="-806.3" font-family="Times,serif" font-size="14.00">&quot;/usr/lib/x86_64&#45;linux&#45;gnu/libelf&#45;0.163.so&quot;</text>
</g>
<!-- 35&#45;&gt;36 -->
<g id="edge91" class="edge"><title>35&#45;&gt;36</title>
<path fill="none" stroke="black" d="M3718.98,-863.697C3719.86,-855.983 3720.92,-846.712 3721.9,-838.112"/>
<polygon fill="black" stroke="black" points="3725.39,-838.437 3723.05,-828.104 3718.43,-837.642 3725.39,-838.437"/>
</g>
<!-- 36&#45;&gt;3 -->
<g id="edge90" class="edge"><title>36&#45;&gt;3</title>
<path fill="none" stroke="black" d="M3715.62,-791.754C3710.41,-781.588 3704.16,-768.338 3700,-756 3687.06,-717.677 3681,-707.447 3681,-667 3681,-667 3681,-667 3681,-521 3681,-480.553 3687.5,-463.399 3662,-432 3612.21,-370.677 3413.9,-306.073 3337,-288 3230.08,-262.871 2480.03,-242.897 2229.94,-236.872"/>
<polygon fill="black" stroke="black" points="2229.91,-233.37 2219.83,-236.629 2229.74,-240.368 2229.91,-233.37"/>
</g>
<!-- 37 -->
<g id="node38" class="node"><title>37</title>
<ellipse fill="none" stroke="black" cx="3880" cy="-738" rx="170.87" ry="18"/>
<text text-anchor="middle" x="3880" y="-734.3" font-family="Times,serif" font-size="14.00">&quot;/lib/x86_64&#45;linux&#45;gnu/ld&#45;linux&#45;x86&#45;64.so.2&quot;</text>
</g>
<!-- 36&#45;&gt;37 -->
<g id="edge89" class="edge"><title>36&#45;&gt;37</title>
<path fill="none" stroke="black" d="M3761.73,-792.411C3783.37,-782.639 3810.93,-770.191 3834.01,-759.77"/>
<polygon fill="black" stroke="black" points="3835.59,-762.897 3843.26,-755.591 3832.71,-756.517 3835.59,-762.897"/>
</g>
<!-- 37&#45;&gt;12 -->
<g id="edge88" class="edge"><title>37&#45;&gt;12</title>
<path fill="none" stroke="black" d="M3903.97,-720.055C3916.86,-710.941 3932.93,-699.577 3946.88,-689.708"/>
<polygon fill="black" stroke="black" points="3949.11,-692.42 3955.26,-683.789 3945.07,-686.705 3949.11,-692.42"/>
</g>
<!-- 38&#45;&gt;1 -->
<g id="edge92" class="edge"><title>38&#45;&gt;1</title>
<path fill="none" stroke="black" d="M2840,-431.697C2840,-423.983 2840,-414.712 2840,-406.112"/>
<polygon fill="black" stroke="black" points="2843.5,-406.104 2840,-396.104 2836.5,-406.104 2843.5,-406.104"/>
</g>
<!-- 38&#45;&gt;3 -->
<g id="edge93" class="edge"><title>38&#45;&gt;3</title>
<path fill="none" stroke="black" d="M2771.17,-433.283C2747.21,-425.204 2721.48,-413.292 2702,-396 2661.41,-359.97 2690.19,-318.057 2645,-288 2569.77,-237.962 2329.51,-264.31 2240,-252 2231.11,-250.778 2221.78,-249.281 2212.61,-247.686"/>
<polygon fill="black" stroke="black" points="2213.21,-244.239 2202.75,-245.926 2211.98,-251.13 2213.21,-244.239"/>
</g>
<!-- 38&#45;&gt;7 -->
<g id="edge95" class="edge"><title>38&#45;&gt;7</title>
<path fill="none" stroke="black" d="M2696.13,-439.049C2656.56,-436.518 2613.63,-433.963 2574,-432 2032.57,-405.184 1381.07,-387.073 1151.78,-381.13"/>
<polygon fill="black" stroke="black" points="1151.6,-377.624 1141.51,-380.864 1151.42,-384.621 1151.6,-377.624"/>
</g>
<!-- 38&#45;&gt;9 -->
<g id="edge96" class="edge"><title>38&#45;&gt;9</title>
<path fill="none" stroke="black" d="M2697.87,-438.83C2657.83,-436.26 2614.22,-433.74 2574,-432 1867.37,-401.438 1689.68,-425.514 983,-396 922.419,-393.47 854.512,-389.36 800.861,-385.815"/>
<polygon fill="black" stroke="black" points="800.881,-382.309 790.671,-385.137 800.417,-389.293 800.881,-382.309"/>
</g>
<!-- 38&#45;&gt;22 -->
<g id="edge94" class="edge"><title>38&#45;&gt;22</title>
<path fill="none" stroke="black" d="M2906.8,-433.203C2957.21,-421.282 3025.82,-405.056 3074.81,-393.472"/>
<polygon fill="black" stroke="black" points="3075.71,-396.854 3084.64,-391.146 3074.1,-390.042 3075.71,-396.854"/>
</g>
<!-- 38&#45;&gt;24 -->
<g id="edge97" class="edge"><title>38&#45;&gt;24</title>
<path fill="none" stroke="black" d="M2730.73,-435.627C2618.18,-421.854 2445.58,-400.732 2346.07,-388.554"/>
<polygon fill="black" stroke="black" points="2346.43,-385.072 2336.08,-387.332 2345.58,-392.02 2346.43,-385.072"/>
</g>
<!-- 39&#45;&gt;3 -->
<g id="edge98" class="edge"><title>39&#45;&gt;3</title>
<path fill="none" stroke="black" d="M3324.7,-503.724C3314.67,-494.156 3303.2,-481.487 3296,-468 3257.27,-395.441 3316.32,-340.491 3253,-288 3233.32,-271.685 2480.92,-245.791 2229.71,-237.584"/>
<polygon fill="black" stroke="black" points="2229.67,-234.081 2219.56,-237.253 2229.44,-241.077 2229.67,-234.081"/>
</g>
<!-- 39&#45;&gt;22 -->
<g id="edge99" class="edge"><title>39&#45;&gt;22</title>
<path fill="none" stroke="black" d="M3318.25,-504.065C3302.14,-493.781 3281.28,-480.306 3263,-468 3229.89,-445.711 3192.54,-419.392 3166.96,-401.184"/>
<polygon fill="black" stroke="black" points="3168.94,-398.294 3158.76,-395.338 3164.87,-403.993 3168.94,-398.294"/>
</g>
<!-- 39&#45;&gt;34 -->
<g id="edge100" class="edge"><title>39&#45;&gt;34</title>
<path fill="none" stroke="black" d="M3377.1,-504.233C3395.28,-494.736 3418.22,-482.753 3437.72,-472.562"/>
<polygon fill="black" stroke="black" points="3439.46,-475.605 3446.7,-467.873 3436.22,-469.401 3439.46,-475.605"/>
</g>
</g>
</svg>
